<svg xmlns="http://www.w3.org/2000/svg" width="100" height="100" viewBox="0 0 100 100" fill="none"><circle cx="50" cy="50" r="50" fill="#F29F00"></circle><path d="M31.2343 67.0967C32.5716 65.5029 36.6171 59.1226 42.4757 54.5117C35.1595 53.4315 28.1754 51.2752 26.2482 50.5737C22.8853 49.3497 21.1513 45.6312 22.3754 42.2683C23.5993 38.9054 27.3178 37.1714 30.6807 38.3954C32.4883 39.0533 39.6899 42.5665 45.7742 46.1976C44.3749 39.1018 43.4868 30.7184 43.4868 28.7385C43.4868 25.1598 46.388 22.2586 49.9668 22.2586C53.5455 22.2586 56.4467 25.1598 56.4467 28.7385C56.4467 30.7226 55.555 39.093 54.1504 46.1983C60.2505 42.5512 67.5042 39.0561 69.3193 38.3954C72.6823 37.1714 76.4007 38.9054 77.6247 42.2683C78.8488 45.6312 77.1148 49.3497 73.7518 50.5737C71.7681 51.2957 64.9392 53.4638 57.5 54.5086C63.3297 59.1119 67.5435 65.5135 68.8719 67.0967C71.1723 69.8382 70.8148 73.9254 68.0732 76.2258C65.3318 78.5262 61.2445 78.1686 58.9442 75.4271C57.6894 73.9318 53.4403 67.1136 49.9675 60.8506C46.4946 67.1136 42.4168 73.9318 41.1621 75.4271C38.8617 78.1686 34.7744 78.5262 32.033 76.2258C29.2915 73.9254 28.9339 69.8382 31.2343 67.0967Z" fill="white"></path></svg> 
